<svg width="103" height="144" viewBox="0 0 103 144" fill="none" xmlns="http://www.w3.org/2000/svg">
<path fill-rule="evenodd" clip-rule="evenodd" d="M117.74 4.80484L111.931 1.44916C111.29 2.2287 114.313 25.3408 106.169 29.9698C82.7393 28.9008 68.5592 43.4963 64.2663 49.9941C55.7241 55.6183 44.6798 75.8854 45.2995 87.0195C45.5482 91.5068 39.5711 108.013 39.2696 117.204C39.2142 118.647 38.3426 120.759 38.1564 122.129C37.8578 124.112 32.453 132.356 31.5497 132.735C35.242 136.369 49.524 132.444 57.7574 132.176C79.4668 131.518 86.1193 126.563 102.228 118.663C118.646 110.605 132.383 93.4057 134.057 74.3541C135.188 61.0986 124.375 45.462 119.431 32.0978C119.042 25.8717 120.852 10.9415 117.74 4.80484Z" fill="#30791A"/>
<path d="M40.0016 129.459C39.7155 129.619 39.1669 129.443 38.8024 129.055C38.4379 128.668 38.3344 128.235 38.6141 128.056C42.184 126.033 47.336 121.924 52.6582 117.312C60.0508 110.864 67.79 103.395 71.7155 99.2745C75.269 95.6114 78.3278 91.4988 80.8138 87.0417C81.6181 85.7073 82.4983 84.2197 83.5531 82.5564C86.3544 78.3204 89.5598 74.366 93.1243 70.7487C97.1351 66.4085 101.152 62.0874 104.408 55.8864C107.267 50.2778 109.491 44.3679 111.04 38.2663C111.78 35.6994 112.551 33.0368 113.515 30.1601C113.676 29.6912 113.915 27.123 114.084 25.5456C114.095 25.0421 114.169 24.542 114.305 24.0572C114.518 23.8366 115.05 23.9335 115.447 24.2888C115.843 24.6442 116.039 25.0989 115.801 25.3387C115.734 25.3612 115.821 25.7464 115.76 26.4155C115.65 28.0214 115.455 29.6203 115.175 31.2053C114.204 34.0948 113.446 36.7319 112.713 39.286C111.164 45.4363 108.943 51.3976 106.091 57.0621C102.8 63.3174 98.7546 67.68 94.6994 72.0459C91.1686 75.6382 87.9881 79.5588 85.201 83.7546C84.1336 85.4435 83.2565 86.9087 82.4585 88.2304C79.9549 92.7291 76.8739 96.8812 73.2938 100.581C69.3651 104.692 61.6323 112.18 54.1762 118.66C48.8317 123.27 43.6161 127.41 40.0016 129.459Z" fill="white"/>
<path d="M55.4322 129.505C55.1674 129.472 54.9122 129.385 54.683 129.248C54.4539 129.111 54.2557 128.928 54.1011 128.71C53.7905 128.262 53.8848 127.912 54.3179 127.904C56.4458 127.909 56.75 122.129 56.951 117.777C57.0574 115.477 57.1492 113.543 57.5418 112.879C57.6969 112.614 58.2195 112.651 58.7305 113.031C59.2415 113.412 59.5299 113.888 59.362 114.147C59.0518 114.677 58.9661 116.534 58.8721 118.745C58.6466 123.371 58.366 129.504 55.4322 129.505Z" fill="white"/>
<path d="M68.4344 129.382C68.375 129.71 67.9196 129.747 67.4026 129.475C67.1814 129.373 66.9905 129.215 66.849 129.017C66.7076 128.818 66.6203 128.586 66.5958 128.344L66.7523 127.547C67.5085 123.486 69.6176 112.027 65.7876 106.409C65.4898 105.967 65.5872 105.594 65.9821 105.567C66.2451 105.584 66.5007 105.661 66.7292 105.792C66.9577 105.923 67.1532 106.105 67.3004 106.324C71.7515 112.838 69.4501 123.947 68.6003 128.582L68.4344 129.382Z" fill="white"/>
<path d="M79.6125 126.876C79.4894 127.173 79.0116 127.175 78.5454 126.864C78.0792 126.554 77.7653 126.064 77.8884 125.768C78.671 123.707 79.3851 122.074 79.9565 120.648C82.3126 115.027 82.717 114.082 81.5347 102.415C81.5338 102.371 81.5369 102.328 81.5438 102.284L81.6125 101.889C81.4293 100.413 81.0224 98.9727 80.4058 97.6187C79.9669 96.2902 79.3448 95.0295 78.5575 93.8729C78.1579 93.4762 78.0542 92.9796 78.3596 92.8766C78.6651 92.7736 79.207 92.899 79.5685 93.3086C80.6453 94.7233 81.4868 96.3026 82.0603 97.9855C82.8641 100.053 83.4802 102.195 83.3456 102.867L83.28 103.208C84.4756 115.041 84.0713 116.017 81.6424 121.769C81.112 123.096 80.4425 124.704 79.6125 126.876Z" fill="white"/>
<path d="M73.1928 98.1065C73.3926 98.1599 73.5744 98.2657 73.7194 98.4131C73.8645 98.5604 73.9674 98.7439 74.0176 98.9445C74.0475 99.2852 73.72 99.4489 73.2959 99.3262C71.5736 98.8007 69.911 98.0967 68.335 97.2257C66.5223 96.2638 64.8308 95.378 59.5433 94.5783C58.9728 94.4943 56.2613 94.3034 53.9644 94.2384C52.4671 94.18 51.2086 94.1049 51.1769 94.1688C50.9419 94.3544 50.4573 94.2414 50.109 93.9337C49.7607 93.626 49.6636 93.2122 49.9051 93.0457C51.0481 92.8447 52.2142 92.8094 53.3673 92.9409C55.6706 93.025 58.5191 93.2123 59.1246 93.3056C64.7818 94.1613 66.6552 95.1453 68.6627 96.2115C70.1017 97.0012 71.6201 97.6364 73.1928 98.1065Z" fill="white"/>
<path d="M60.8079 107.908C61.2676 108.199 61.5498 108.721 61.4073 108.96C61.2648 109.2 60.7871 109.233 60.3369 108.939C57.534 107.132 54.5368 105.647 51.4019 104.511C48.878 103.545 46.2102 103.007 43.509 102.921C43.2665 102.9 43.0323 102.823 42.8249 102.695C42.6176 102.568 42.443 102.394 42.315 102.186C42.0683 101.77 42.2072 101.426 42.6213 101.424C45.5713 101.52 48.4841 102.111 51.2378 103.174C54.5968 104.384 57.8074 105.973 60.8079 107.908Z" fill="white"/>
<path d="M51.4735 117.329C51.7014 117.402 51.9079 117.531 52.075 117.702C52.2422 117.874 52.365 118.083 52.4326 118.313C52.4849 118.689 52.1416 118.868 51.6695 118.698C50.9327 118.436 50.1415 118.076 49.3374 117.709C47.5379 116.881 45.5596 115.965 44.5869 116.516C44.304 116.686 43.7554 116.509 43.3877 116.113C43.0199 115.716 42.9197 115.292 43.1993 115.113C44.7094 114.263 47.163 115.392 49.4124 116.419C50.1527 116.786 50.8994 117.14 51.4735 117.329Z" fill="white"/>
<path d="M99.0896 114.842C99.3522 115.243 99.2356 115.59 98.8439 115.627C98.6088 115.62 98.3789 115.556 98.1746 115.439C97.9703 115.323 97.7978 115.158 97.6725 114.959C97.349 114.472 97.3588 112.768 97.3764 110.551C97.3649 107.366 97.4228 103.094 96.8185 100.672C96.5824 99.6885 96.3654 98.6986 96.1002 97.5655C95.0609 92.909 93.7626 87.0748 91.0342 83.0519C90.4066 82.1367 89.8552 81.1639 89.3325 80.2134C88.8966 79.4568 88.4702 78.6971 88.0666 78.0678C87.8039 77.6674 87.9206 77.3197 88.3122 77.2833C88.5466 77.2931 88.7752 77.3589 88.979 77.475C89.1828 77.5912 89.3559 77.7545 89.4837 77.9512C89.9641 78.6821 90.3873 79.4324 90.8169 80.2017C91.3202 81.095 91.8556 82.0519 92.4128 82.8526C95.3493 87.1774 96.6992 93.1962 97.7708 97.98C98.0233 99.1068 98.2628 100.163 98.4795 101.058C99.1194 103.617 99.0873 107.997 99.0607 111.227C99.0648 113.256 99.048 114.782 99.0896 114.842Z" fill="white"/>
<path d="M82.3931 84.1915C82.6224 84.2634 82.8306 84.3903 82.9995 84.5613C83.1684 84.7323 83.2928 84.9421 83.3618 85.1723C83.4237 85.5448 83.0803 85.7244 82.5987 85.5573C77.534 83.8107 76.2617 83.4426 73.2608 82.4882L68.1074 80.8885C64.9843 80.1032 61.7989 79.5913 58.587 79.3586C55.2349 79.0649 52.0875 78.9997 51.0248 79.3476C50.7912 79.3767 50.5541 79.3442 50.337 79.2533C50.1198 79.1625 49.9302 79.0164 49.787 78.8296C49.4511 78.4326 49.4401 78.0218 49.7741 77.9091C51.0245 77.4873 54.3344 77.5614 57.8618 77.8705C61.2216 78.1328 64.5516 78.6922 67.8127 79.5421C70.0832 80.2539 71.6713 80.7387 72.9405 81.1292C76.0275 82.0864 77.3094 82.4832 82.3931 84.1915Z" fill="white"/>
<path d="M92.1802 71.3222C92.4287 71.4106 92.654 71.5542 92.839 71.7422C93.0239 71.9303 93.1638 72.1578 93.248 72.4078C93.3323 72.8152 92.9857 72.9853 92.4817 72.7833C89.3717 71.5999 86.4908 70.3711 83.8428 69.2339C73.6499 64.9224 66.3952 61.8522 57.2151 65.4592L56.9226 65.6323C56.8959 65.6673 56.8624 65.6967 56.8242 65.7186L56.3887 65.9718C56.1026 66.1321 55.5349 65.9303 55.1097 65.5209C54.6846 65.1115 54.5682 64.6405 54.8383 64.4643L54.9338 64.4322L55.1563 64.3039C55.3322 64.1827 55.5147 64.0714 55.703 63.9707L55.7889 63.9417C65.4495 60.1514 73.0263 63.3574 83.6882 67.8615C86.2275 68.8972 89.0731 70.0847 92.1802 71.3222Z" fill="white"/>
<path d="M115.821 102.862C116.106 103.266 116.031 103.642 115.642 103.688C115.402 103.684 115.166 103.623 114.954 103.51C114.742 103.396 114.56 103.234 114.423 103.036C114.136 102.337 113.894 101.619 113.699 100.888C112.783 97.8593 111.013 91.9821 110.168 89.9816L109.796 89.0973C109.076 87.3502 108.204 85.6702 107.188 84.0769C105.947 82.1849 104.54 80.4075 102.983 78.766C102.897 78.6676 100.189 75.1478 98.2721 72.5841C97.5044 71.6349 96.8097 70.629 96.1939 69.575C96.0652 69.1932 96.3925 68.9658 96.8612 69.0947C97.0955 69.1586 97.3115 69.2765 97.4919 69.4391C97.6723 69.6017 97.812 69.8043 97.8998 70.0307C97.8998 70.0307 98.6393 71.0569 99.6059 72.3468C101.51 74.8405 104.039 78.208 104.112 78.2682C105.771 80.0371 107.275 81.9446 108.608 83.9699L108.628 84.0272C109.706 85.718 110.635 87.5 111.402 89.3528L111.81 90.2146C112.7 92.3169 114.514 98.2321 115.408 101.29C115.698 102.308 115.738 102.71 115.821 102.862Z" fill="white"/>
<path d="M99.5152 61.2682C99.7582 61.3801 99.9733 61.5443 100.145 61.7491C100.317 61.9539 100.442 62.1942 100.51 62.4528C100.524 62.8414 100.111 62.9384 99.584 62.6696C95.0854 60.4418 90.3381 58.7565 85.4418 57.6492C80.8332 56.4728 76.0861 55.9284 71.3309 56.0307C70.9293 56.0199 70.5289 55.9809 70.1328 55.9139L68.8325 55.7466C68.5816 55.9482 67.998 55.7623 67.5251 55.3372C67.0521 54.912 66.8782 54.3966 67.1387 54.1918C67.3992 53.987 68.3648 54.1077 69.187 54.2131C69.6013 54.2753 69.9806 54.3281 70.0857 54.3246C75.0085 54.215 79.9232 54.7782 84.6937 55.9986C89.8225 57.1719 94.7968 58.9405 99.5152 61.2682Z" fill="white"/>
<path d="M108.133 47.5495C108.363 47.6213 108.572 47.7477 108.743 47.918C108.913 48.0882 109.04 48.2972 109.112 48.5271C109.177 48.9091 108.843 49.0855 108.364 48.9279C104.017 47.7504 99.5678 46.9909 95.0763 46.6599C89.9747 46.1908 85.142 46.0776 83.2868 46.5971C83.0496 46.6187 82.8108 46.5799 82.5927 46.4843C82.3746 46.3888 82.1842 46.2395 82.0394 46.0505C81.7098 45.6407 81.7592 45.2201 82.0711 45.1361C84.0664 44.5906 89.0933 44.6809 94.3415 45.1749C99.0047 45.5184 103.624 46.3136 108.133 47.5495Z" fill="white"/>
</svg>
