<svg width="198" height="68" viewBox="0 0 198 68" fill="none" xmlns="http://www.w3.org/2000/svg">
<path d="M198 0H0V68H198V0Z" fill="#014593"/>
<path d="M20.1238 38.0748C21.4977 41.2875 23.7925 44.0273 26.7224 45.9526C29.6522 47.8779 33.0874 48.9036 36.5998 48.9017C35.2255 45.6893 32.9305 42.9498 30.0007 41.0246C27.071 39.0993 23.636 38.0735 20.1238 38.0748Z" fill="#18A95D"/>
<path d="M36.5888 40.004C43.9986 40.004 50.0055 34.0338 50.0055 26.6693C50.0055 19.3048 43.9986 13.3347 36.5888 13.3347C29.179 13.3347 23.1722 19.3048 23.1722 26.6693C23.1722 34.0338 29.179 40.004 36.5888 40.004Z" fill="#FCBF00"/>
<path d="M36.5998 48.9017C39.1781 48.9011 41.7017 48.1623 43.8688 46.7738C46.0358 45.3852 47.7545 43.4057 48.8194 41.0719C46.241 41.0722 43.7173 41.8109 41.5502 43.1994C39.3831 44.588 37.6645 46.5677 36.5998 48.9017Z" fill="#18A95D"/>
<path d="M36.5888 33.3356C40.2931 33.3356 43.296 30.351 43.296 26.6693C43.296 22.9877 40.2931 20.0031 36.5888 20.0031C32.8845 20.0031 29.8816 22.9877 29.8816 26.6693C29.8816 30.351 32.8845 33.3356 36.5888 33.3356Z" fill="#014593"/>
<path d="M122.907 26.6693H128.51V48.2884H122.907V39.867H113.108V48.2884H107.502V26.6693H113.112V34.6362H122.912L122.907 26.6693ZM131.162 32.0306H138.149V48.2884H143.76V32.0306H150.662V26.6693H131.162V32.0306ZM177.874 43.5839V48.1796C176.918 48.6559 175.721 48.893 174.327 48.893C171.412 48.893 169.95 47.6315 169.355 45.6001L169.261 45.7372C167.565 47.8556 165.217 48.893 162.17 48.893C159.256 48.893 156.776 47.8055 154.689 45.6067C152.642 43.4012 151.599 40.6782 151.599 37.4788C151.599 34.2795 152.642 31.6065 154.689 29.3924C156.776 27.187 159.256 26.0625 162.17 26.0625C165.085 26.0625 167.357 27.0151 169.033 28.9508V26.6693H174.646V41.9614C174.646 43.2664 175.244 43.9406 176.438 43.9406C176.941 43.9556 177.438 43.8322 177.874 43.5839ZM169.261 37.4788C169.261 35.7063 168.696 34.236 167.51 33.1115C166.379 31.9436 164.943 31.3824 163.203 31.3824C161.464 31.3824 160.028 31.9436 158.897 33.1115C157.765 34.236 157.201 35.7063 157.201 37.4788C157.201 39.2514 157.765 40.7217 158.897 41.8875C160.027 43.0112 161.463 43.5738 163.203 43.5753C164.944 43.5767 166.379 43.0141 167.51 41.8875C168.696 40.7217 169.261 39.2514 169.261 37.4788ZM61.2644 26.6693L61.109 34.7906C61.0675 38.0791 60.9493 39.7038 60.4701 41.5656C60.0324 43.3469 59.1942 43.8515 57.8791 43.8515C57.4876 43.8659 57.0965 43.8121 56.7236 43.6927V48.2884C57.1613 48.5254 57.8791 48.6451 58.8354 48.6451C62.7744 48.5254 64.6957 46.6746 65.652 43.3469C66.3304 40.9697 66.4486 39.1492 66.5689 36.4153L66.6937 32.0306H73.6635V48.2884H79.2722V26.6693H61.2644ZM88.2925 38.9361C88.8964 42.6335 91.8398 43.8341 94.8268 43.8341C96.7963 43.8341 98.8774 43.0663 100.155 41.9158L103.617 45.3761C101.549 47.6511 98.6717 48.9017 94.7393 48.9017C89.2334 48.9017 82.5919 45.6719 82.5919 37.4876C82.5919 29.3032 88.9862 26.0712 94.4088 26.0712C101.28 26.0712 104.125 29.2793 104.125 32.8766C104.134 38.749 96.6125 41.4655 88.2925 38.9361ZM98.0393 33.4987C98.0393 31.8218 96.3696 31.0736 94.5008 31.0736C91.6428 31.0736 89.1678 32.272 88.415 35.3561C94.236 37.033 98.0393 35.7867 98.0393 33.5052V33.4987Z" fill="white"/>
</svg>
